bw_sq_120_01
version=1
nRows=16
nColumns=46
inDegrees=yes
endheader
time	ground_force3_vx	ground_force3_vy	ground_force3_vz	ground_force3_px	ground_force3_py	ground_force3_pz	ground_torque3_x	ground_torque3_y	ground_torque3_z	ground_force5_vx	ground_force5_vy	ground_force5_vz	ground_force5_px	ground_force5_py	ground_force5_pz	ground_torque5_x	ground_torque5_y	ground_torque5_z	ground_force4_vx	ground_force4_vy	ground_force4_vz	ground_force4_px	ground_force4_py	ground_force4_pz	ground_torque4_x	ground_torque4_y	ground_torque4_z	ground_force1_vx	ground_force1_vy	ground_force1_vz	ground_force1_px	ground_force1_py	ground_force1_pz	ground_torque1_x	ground_torque1_y	ground_torque1_z	ground_force2_vx	ground_force2_vy	ground_force2_vz	ground_force2_px	ground_force2_py	ground_force2_pz	ground_torque2_x	ground_torque2_y	ground_torque2_z
0.912000	-0.000000	-0.000000	0.000000	0.200000	0.000000	-0.300000	0.000000	0.000000	-0.000000	-4.421517	326.102631	57.155060	0.242924	0.000000	-1.433648	0.000014	-2.284949	0.000003	5.735267	308.970032	-62.422813	0.222463	0.000000	-0.950523	0.000025	1.779897	0.000001	-0.000000	-0.000000	0.000000	0.200000	0.000000	0.904000	0.000000	0.000000	-0.000000	-0.000000	-0.000000	0.000000	0.400000	0.000000	0.302000	0.000000	0.000000	-0.000000	
0.913000	-0.000000	-0.000000	0.000000	0.200000	0.000000	-0.300000	0.000000	0.000000	-0.000000	-3.938387	325.784729	56.511566	0.243172	0.000000	-1.433873	0.000028	-2.346053	0.000007	5.413181	308.978790	-62.102768	0.221654	0.000000	-0.950487	0.000015	1.725538	0.000003	-0.000000	-0.000000	0.000000	0.200000	0.000000	0.904000	0.000000	0.000000	-0.000000	-0.000000	-0.000000	0.000000	0.400000	0.000000	0.302000	0.000000	0.000000	-0.000000	
0.914000	-0.000000	-0.000000	0.000000	0.200000	0.000000	-0.300000	0.000000	0.000000	-0.000000	-4.261323	325.145294	57.476128	0.242691	0.000000	-1.433188	0.000044	-2.218048	0.000005	5.249049	308.016418	-62.905441	0.221568	0.000000	-0.950569	0.000013	1.744127	0.000005	-0.000000	-0.000000	0.000000	0.200000	0.000000	0.904000	0.000000	0.000000	-0.000000	-0.000000	-0.000000	0.000000	0.400000	0.000000	0.302000	0.000000	0.000000	-0.000000	
0.915000	-0.000000	-0.000000	0.000000	0.200000	0.000000	-0.300000	0.000000	0.000000	-0.000000	-4.099091	326.418518	57.958069	0.243218	0.000000	-1.432683	0.000037	-2.439952	0.000000	5.897853	308.658203	-62.422813	0.221096	0.000000	-0.951595	0.000006	1.712882	0.000003	-0.000000	-0.000000	0.000000	0.200000	0.000000	0.904000	0.000000	0.000000	-0.000000	-0.000000	-0.000000	0.000000	0.400000	0.000000	0.302000	0.000000	0.000000	-0.000000	
0.916000	-0.000000	-0.000000	0.000000	0.200000	0.000000	-0.300000	0.000000	0.000000	-0.000000	-4.422536	325.464844	57.637001	0.242970	0.000000	-1.433064	0.000013	-2.201374	0.000006	5.732178	308.655518	-61.941212	0.222079	0.000000	-0.951496	0.000010	1.552669	-0.000001	-0.000000	-0.000000	0.000000	0.200000	0.000000	0.904000	0.000000	0.000000	-0.000000	-0.000000	-0.000000	0.000000	0.400000	0.000000	0.302000	0.000000	0.000000	-0.000000	
0.917000	-0.000000	-0.000000	0.000000	0.200000	0.000000	-0.300000	0.000000	0.000000	-0.000000	-4.259794	328.018280	57.959084	0.243577	0.000000	-1.432871	-0.000006	-2.387924	0.000005	6.060441	310.258362	-61.940193	0.221422	0.000000	-0.950267	0.000006	1.736263	0.000001	-0.000000	-0.000000	0.000000	0.200000	0.000000	0.904000	0.000000	0.000000	-0.000000	-0.000000	-0.000000	0.000000	0.400000	0.000000	0.302000	0.000000	0.000000	-0.000000	
0.918000	-0.000000	-0.000000	0.000000	0.200000	0.000000	-0.300000	0.000000	0.000000	-0.000000	-4.421517	330.883331	58.600883	0.241681	0.000000	-1.433113	0.000027	-2.334220	0.000006	5.413181	309.301697	-62.263298	0.221007	0.000000	-0.950277	0.000010	1.709136	0.000004	-0.000000	-0.000000	0.000000	0.200000	0.000000	0.904000	0.000000	0.000000	-0.000000	-0.000000	-0.000000	0.000000	0.400000	0.000000	0.302000	0.000000	0.000000	-0.000000	
0.919000	-0.000000	-0.000000	0.000000	0.200000	0.000000	-0.300000	0.000000	0.000000	-0.000000	-4.582730	330.885620	58.440689	0.242688	0.000000	-1.434676	0.000002	-2.300552	0.000007	6.543568	310.570160	-62.908497	0.222316	0.000000	-0.951727	0.000009	1.606086	0.000005	-0.000000	-0.000000	0.000000	0.200000	0.000000	0.904000	0.000000	0.000000	-0.000000	-0.000000	-0.000000	0.000000	0.400000	0.000000	0.302000	0.000000	0.000000	-0.000000	
0.920000	-0.000000	-0.000000	0.000000	0.200000	0.000000	-0.300000	0.000000	0.000000	-0.000000	-4.743433	329.925293	57.958069	0.242344	0.000000	-1.433221	-0.000002	-2.368124	0.000004	5.894765	308.978088	-61.457569	0.221472	0.000000	-0.950791	0.000016	1.552775	0.000004	-0.000000	-0.000000	0.000000	0.200000	0.000000	0.904000	0.000000	0.000000	-0.000000	-0.000000	-0.000000	0.000000	0.400000	0.000000	0.302000	0.000000	0.000000	-0.000000	
0.921000	-0.000000	-0.000000	0.000000	0.200000	0.000000	-0.300000	0.000000	0.000000	-0.000000	-3.616471	329.931274	58.922966	0.243227	0.000000	-1.433505	0.000024	-2.335521	0.000005	6.384069	307.697876	-61.779655	0.221624	0.000000	-0.951440	0.000015	1.703236	0.000005	-0.000000	-0.000000	0.000000	0.200000	0.000000	0.904000	0.000000	0.000000	-0.000000	-0.000000	-0.000000	0.000000	0.400000	0.000000	0.302000	0.000000	0.000000	-0.000000	
0.922000	-0.000000	-0.000000	0.000000	0.200000	0.000000	-0.300000	0.000000	0.000000	-0.000000	-4.100619	331.199829	58.280151	0.241849	0.000000	-1.433794	0.000025	-2.099339	0.000006	6.219939	309.299683	-62.422813	0.220864	0.000000	-0.951100	-0.000000	1.621129	-0.000000	-0.000000	-0.000000	0.000000	0.200000	0.000000	0.904000	0.000000	0.000000	-0.000000	-0.000000	-0.000000	0.000000	0.400000	0.000000	0.302000	0.000000	0.000000	-0.000000	
0.923000	-0.000000	-0.000000	0.000000	0.200000	0.000000	-0.300000	0.000000	0.000000	-0.000000	-3.778193	328.655762	59.404572	0.243191	0.000000	-1.434272	0.000039	-2.323866	-0.000002	5.414725	308.652832	-62.260242	0.221776	0.000000	-0.951557	0.000014	1.930619	0.000005	-0.000000	-0.000000	0.000000	0.200000	0.000000	0.904000	0.000000	0.000000	-0.000000	-0.000000	-0.000000	0.000000	0.400000	0.000000	0.302000	0.000000	0.000000	-0.000000	
0.924000	-0.000000	-0.000000	0.000000	0.200000	0.000000	-0.300000	0.000000	0.000000	-0.000000	-3.939916	331.207184	59.404572	0.243231	0.000000	-1.433345	0.000031	-2.244555	0.000005	6.060441	312.175720	-61.456551	0.222297	0.000000	-0.949873	0.000014	1.801577	0.000006	-0.000000	-0.000000	0.000000	0.200000	0.000000	0.904000	0.000000	0.000000	-0.000000	-0.000000	-0.000000	0.000000	0.400000	0.000000	0.302000	0.000000	0.000000	-0.000000	
0.925000	-0.000000	-0.000000	0.000000	0.200000	0.000000	-0.300000	0.000000	0.000000	-0.000000	-4.583239	333.115173	59.243362	0.242245	0.000000	-1.434093	0.000049	-2.343213	0.000005	6.380981	310.899475	-61.780678	0.221661	0.000000	-0.950922	0.000015	1.540909	0.000003	-0.000000	-0.000000	0.000000	0.200000	0.000000	0.904000	0.000000	0.000000	-0.000000	-0.000000	-0.000000	0.000000	0.400000	0.000000	0.302000	0.000000	0.000000	-0.000000	
0.926000	-0.000000	-0.000000	0.000000	0.200000	0.000000	-0.300000	0.000000	0.000000	-0.000000	-4.100110	333.116852	60.207581	0.242307	0.000000	-1.433960	0.000035	-2.386674	0.000002	4.926964	308.656525	-61.618103	0.221458	0.000000	-0.951067	-0.000004	1.749012	0.000007	-0.000000	-0.000000	0.000000	0.200000	0.000000	0.904000	0.000000	0.000000	-0.000000	-0.000000	-0.000000	0.000000	0.400000	0.000000	0.302000	0.000000	0.000000	-0.000000	
0.927000	-0.000000	-0.000000	0.000000	0.200000	0.000000	-0.300000	0.000000	0.000000	-0.000000	-4.582730	334.072510	59.885834	0.242257	0.000000	-1.434391	0.000008	-2.472538	0.000001	5.249049	308.976074	-62.100723	0.221607	0.000000	-0.951283	0.000017	1.706424	0.000002	-0.000000	-0.000000	0.000000	0.200000	0.000000	0.904000	0.000000	0.000000	-0.000000	-0.000000	-0.000000	0.000000	0.400000	0.000000	0.302000	0.000000	0.000000	-0.000000	
